<?xml version="1.0" encoding="UTF-8"?>
<svg version="1.1" xmlns="http://www.w3.org/2000/svg" width="256" height="256">
<path d="M0 0 C1.16363575 0.00027654 1.16363575 0.00027654 2.35077929 0.00055867 C3.16889992 -0.00311801 3.98702054 -0.0067947 4.82993269 -0.0105828 C7.59288955 -0.02166497 10.35580886 -0.02547113 13.11878467 -0.02927226 C15.09109119 -0.03553352 17.06339653 -0.04218001 19.03570056 -0.04918498 C24.4097685 -0.06662684 29.78382752 -0.07715549 35.15791678 -0.08539051 C38.51267982 -0.09053411 41.86744005 -0.09661014 45.22220111 -0.10290164 C55.71031006 -0.12196293 66.19841193 -0.13619184 76.68653488 -0.14451361 C88.80828595 -0.15428927 100.92985457 -0.18061353 113.05154133 -0.2210145 C122.41037482 -0.25114042 131.76915592 -0.26597915 141.12803698 -0.26929462 C146.72242937 -0.27164924 152.31662705 -0.28066297 157.91096759 -0.30575579 C163.1739063 -0.32897973 168.43652134 -0.33329262 173.69949794 -0.32299441 C175.63247828 -0.32249755 177.56547424 -0.32886213 179.49840617 -0.34255046 C182.13537918 -0.36018123 184.77117956 -0.35320704 187.40815234 -0.3400175 C188.55840376 -0.35647137 188.55840376 -0.35647137 189.73189259 -0.37325764 C194.65949821 -0.31366188 197.16328206 0.65106909 200.6334331 4.14772969 C203.11738952 7.61575446 202.86413124 10.92534921 202.8287456 15.10085469 C202.82591571 15.76107625 202.82308581 16.42129781 202.82017016 17.10152608 C202.80901725 19.20044866 202.78392256 21.29893712 202.7584331 23.39772969 C202.74839694 24.82480684 202.7392722 26.25189071 202.73108935 27.67897969 C202.70909421 31.16870297 202.67459846 34.65817393 202.6334331 38.14772969 C204.13909839 38.12416402 204.13909839 38.12416402 205.67518115 38.10012227 C209.41175265 38.04567856 213.14828931 38.01132743 216.88514209 37.98293477 C218.50011099 37.96788094 220.11503924 37.94743321 221.72986865 37.92141134 C224.05589865 37.88487683 226.38138651 37.86796955 228.70765185 37.85476094 C229.78450496 37.83153516 229.78450496 37.83153516 230.88311267 37.80784017 C235.3401745 37.80635568 238.118962 38.371458 241.6334331 41.14772969 C244.72159401 44.45575594 245.01251622 46.77589109 245.02784228 51.24498922 C245.03919208 52.49552587 245.05054187 53.74606252 245.06223559 55.03449422 C245.05959232 56.41778039 245.05662111 57.80106595 245.05335498 59.18435079 C245.06069553 60.64317393 245.06928172 62.10199127 245.07902026 63.56080037 C245.1012481 67.52163524 245.10416628 71.48226214 245.10227275 75.44315082 C245.10215309 78.75077668 245.11071539 82.0583584 245.11905026 85.36597198 C245.13828938 93.17053311 245.14116652 100.97498728 245.13440967 108.77956563 C245.12777008 116.82766502 245.15062847 124.87530596 245.1877234 132.92331237 C245.21842592 139.83555836 245.22977979 146.74765693 245.22588658 153.65996975 C245.22381942 157.78725955 245.2292927 161.91419272 245.25377917 166.0414179 C245.27605288 169.92400636 245.2741641 173.8058501 245.25385165 177.68844205 C245.25044248 179.11143175 245.25552692 180.53447163 245.26983523 181.95739347 C245.38292963 194.04040804 245.38292963 194.04040804 242.28248096 197.97869283 C238.12032903 201.3866573 235.00607864 201.2674455 229.77796435 201.24538594 C228.7855096 201.24326352 228.7855096 201.24326352 227.77300525 201.24109823 C225.66393483 201.23550965 223.55497133 201.22295934 221.4459331 201.21022969 C220.01429401 201.20521321 218.58265326 201.20065056 217.15101123 201.19655782 C213.64511722 201.185544 210.1392856 201.16828724 206.6334331 201.14772969 C206.64231555 201.76303045 206.651198 202.3783312 206.66034961 203.01227742 C206.74888582 209.41988245 206.80919354 215.82731355 206.85315967 222.23537618 C206.87326728 224.6263985 206.9005574 227.0173717 206.93519092 229.40822774 C206.98374461 232.846258 207.00641085 236.28363773 207.0240581 239.72194844 C207.04470325 240.78983098 207.06534839 241.85771352 207.08661914 242.95795614 C207.08798053 247.46699443 207.08574497 250.33916945 204.85511279 254.32668477 C202.13944508 256.55263702 200.05934293 256.80833483 196.5787456 256.55788594 C191.34066483 255.45347132 188.21963228 250.61899131 184.91077685 246.74538594 C181.93428144 243.3502411 178.84817554 240.06466219 175.7584331 236.77272969 C171.09249936 231.7952042 166.47376784 226.78464605 161.9303081 221.69460469 C160.14199644 219.71164686 158.34048006 217.74534619 156.5240581 215.78835469 C155.98345752 215.20585958 155.44285693 214.62336446 154.88587451 214.02321798 C153.82731652 212.884625 152.76717782 211.74749888 151.70521045 210.61208516 C147.71931218 206.32436531 147.71931218 206.32436531 146.58858752 203.9986971 C143.25547145 200.84319738 139.15646525 201.6047844 134.7493999 201.64943868 C133.73447467 201.64391988 132.71954944 201.63840108 131.67386889 201.63271505 C129.46728649 201.62338007 127.26065022 201.62330216 125.0540626 201.63130933 C121.56118653 201.64390083 118.06910522 201.63268374 114.57625842 201.61527425 C108.41851163 201.58851703 102.2609583 201.5829805 96.10315967 201.5843752 C86.25699234 201.58659968 76.41106513 201.57250232 66.56499171 201.52878934 C63.12492438 201.51894442 59.68523288 201.52767351 56.24517322 201.53748494 C54.13199627 201.53133994 52.01882138 201.52442794 49.9056499 201.51662618 C48.95010715 201.52434545 47.99456439 201.53206472 47.01006579 201.5400179 C41.81370193 201.50044779 38.09593258 201.12226146 33.6334331 198.14772969 C30.71517902 193.81850648 30.27206025 190.37115164 30.34046435 185.21804219 C30.35496631 183.28444844 30.35496631 183.28444844 30.36976123 181.31179219 C30.39482122 179.96543183 30.42021598 178.61907766 30.4459331 177.27272969 C30.46099806 175.90295264 30.47468328 174.53315968 30.48694873 173.16335469 C30.52221931 169.82440611 30.57151414 166.48627295 30.6334331 163.14772969 C29.23435718 163.17129537 29.23435718 163.17129537 27.80701709 163.19533712 C24.31998047 163.24670951 20.8333507 163.28419738 17.34607959 163.31252462 C15.84178293 163.32753691 14.3375295 163.34795323 12.83338428 163.37404805 C10.66115615 163.41076785 8.48951059 163.42753131 6.31702685 163.44069844 C4.36107593 163.46426412 4.36107593 163.46426412 2.36561084 163.48830587 C-2.47394831 163.0466767 -6.57587889 161.99030074 -10.04237103 158.42337114 C-11.76449489 155.46388718 -11.74934821 153.42352217 -11.76097608 150.00577718 C-11.77232587 148.74538121 -11.78367566 147.48498525 -11.79536939 146.18639547 C-11.79272613 144.7920772 -11.78975491 143.39775953 -11.78648877 142.00344259 C-11.79382919 140.53314488 -11.80241534 139.06285295 -11.81215405 137.59256917 C-11.83438136 133.6008111 -11.83730017 129.60925938 -11.83540654 125.61744791 C-11.8352869 122.28487465 -11.84384835 118.9523452 -11.85218406 115.61978412 C-11.87142233 107.75773172 -11.87430034 99.89578551 -11.86754346 92.03371602 C-11.86090127 83.92311417 -11.88377294 75.81296694 -11.92085719 67.70245731 C-11.95154389 60.73842289 -11.96291538 53.77453479 -11.95902038 46.8104341 C-11.95695187 42.65131926 -11.96244741 38.49255819 -11.98691297 34.33350736 C-12.00916103 30.42219645 -12.00731927 26.51162526 -11.98698545 22.6003111 C-11.98357192 21.16561352 -11.98867943 19.73086634 -12.00296903 18.29623586 C-12.02114111 16.33645711 -12.00541648 14.3764517 -11.98802686 12.41666585 C-11.98873937 11.32031851 -11.98945188 10.22397117 -11.99018598 9.09440118 C-11.16655628 5.20265666 -9.33215287 3.698539 -6.3665669 1.14772969 C-4.61835178 -0.60048542 -2.33060099 0.01486182 0 0 Z " fill="#0072F3" transform="translate(11.366566896438599,-0.14772969484329224)"/>
<path d="M0 0 C1.16363575 0.00027654 1.16363575 0.00027654 2.35077929 0.00055867 C3.16889992 -0.00311801 3.98702054 -0.0067947 4.82993269 -0.0105828 C7.59288955 -0.02166497 10.35580886 -0.02547113 13.11878467 -0.02927226 C15.09109119 -0.03553352 17.06339653 -0.04218001 19.03570056 -0.04918498 C24.4097685 -0.06662684 29.78382752 -0.07715549 35.15791678 -0.08539051 C38.51267982 -0.09053411 41.86744005 -0.09661014 45.22220111 -0.10290164 C55.71031006 -0.12196293 66.19841193 -0.13619184 76.68653488 -0.14451361 C88.80828595 -0.15428927 100.92985457 -0.18061353 113.05154133 -0.2210145 C122.41037482 -0.25114042 131.76915592 -0.26597915 141.12803698 -0.26929462 C146.72242937 -0.27164924 152.31662705 -0.28066297 157.91096759 -0.30575579 C163.1739063 -0.32897973 168.43652134 -0.33329262 173.69949794 -0.32299441 C175.63247828 -0.32249755 177.56547424 -0.32886213 179.49840617 -0.34255046 C182.13537918 -0.36018123 184.77117956 -0.35320704 187.40815234 -0.3400175 C188.55840376 -0.35647137 188.55840376 -0.35647137 189.73189259 -0.37325764 C194.65949821 -0.31366188 197.16328206 0.65106909 200.6334331 4.14772969 C203.11738952 7.61575446 202.86413124 10.92534921 202.8287456 15.10085469 C202.82591571 15.76107625 202.82308581 16.42129781 202.82017016 17.10152608 C202.80901725 19.20044866 202.78392256 21.29893712 202.7584331 23.39772969 C202.74839694 24.82480684 202.7392722 26.25189071 202.73108935 27.67897969 C202.70909421 31.16870297 202.67459846 34.65817393 202.6334331 38.14772969 C204.13909839 38.12416402 204.13909839 38.12416402 205.67518115 38.10012227 C209.41175265 38.04567856 213.14828931 38.01132743 216.88514209 37.98293477 C218.50011099 37.96788094 220.11503924 37.94743321 221.72986865 37.92141134 C224.05589865 37.88487683 226.38138651 37.86796955 228.70765185 37.85476094 C229.78450496 37.83153516 229.78450496 37.83153516 230.88311267 37.80784017 C235.3401745 37.80635568 238.118962 38.371458 241.6334331 41.14772969 C244.72159401 44.45575594 245.01251622 46.77589109 245.02784228 51.24498922 C245.03919208 52.49552587 245.05054187 53.74606252 245.06223559 55.03449422 C245.05959232 56.41778039 245.05662111 57.80106595 245.05335498 59.18435079 C245.06069553 60.64317393 245.06928172 62.10199127 245.07902026 63.56080037 C245.1012481 67.52163524 245.10416628 71.48226214 245.10227275 75.44315082 C245.10215309 78.75077668 245.11071539 82.0583584 245.11905026 85.36597198 C245.13828938 93.17053311 245.14116652 100.97498728 245.13440967 108.77956563 C245.12777008 116.82766502 245.15062847 124.87530596 245.1877234 132.92331237 C245.21842592 139.83555836 245.22977979 146.74765693 245.22588658 153.65996975 C245.22381942 157.78725955 245.2292927 161.91419272 245.25377917 166.0414179 C245.27605288 169.92400636 245.2741641 173.8058501 245.25385165 177.68844205 C245.25044248 179.11143175 245.25552692 180.53447163 245.26983523 181.95739347 C245.38292963 194.04040804 245.38292963 194.04040804 242.28248096 197.97869283 C238.12032903 201.3866573 235.00607864 201.2674455 229.77796435 201.24538594 C228.7855096 201.24326352 228.7855096 201.24326352 227.77300525 201.24109823 C225.66393483 201.23550965 223.55497133 201.22295934 221.4459331 201.21022969 C220.01429401 201.20521321 218.58265326 201.20065056 217.15101123 201.19655782 C213.64511722 201.185544 210.1392856 201.16828724 206.6334331 201.14772969 C206.64231555 201.76303045 206.651198 202.3783312 206.66034961 203.01227742 C206.74888582 209.41988245 206.80919354 215.82731355 206.85315967 222.23537618 C206.87326728 224.6263985 206.9005574 227.0173717 206.93519092 229.40822774 C206.98374461 232.846258 207.00641085 236.28363773 207.0240581 239.72194844 C207.04470325 240.78983098 207.06534839 241.85771352 207.08661914 242.95795614 C207.08798053 247.46699443 207.08574497 250.33916945 204.85511279 254.32668477 C202.13944508 256.55263702 200.05934293 256.80833483 196.5787456 256.55788594 C191.34066483 255.45347132 188.21963228 250.61899131 184.91077685 246.74538594 C181.93428144 243.3502411 178.84817554 240.06466219 175.7584331 236.77272969 C171.09249936 231.7952042 166.47376784 226.78464605 161.9303081 221.69460469 C160.14199644 219.71164686 158.34048006 217.74534619 156.5240581 215.78835469 C155.98345752 215.20585958 155.44285693 214.62336446 154.88587451 214.02321798 C153.82731652 212.884625 152.76717782 211.74749888 151.70521045 210.61208516 C147.71931218 206.32436531 147.71931218 206.32436531 146.58858752 203.9986971 C143.25547145 200.84319738 139.15646525 201.6047844 134.7493999 201.64943868 C133.73447467 201.64391988 132.71954944 201.63840108 131.67386889 201.63271505 C129.46728649 201.62338007 127.26065022 201.62330216 125.0540626 201.63130933 C121.56118653 201.64390083 118.06910522 201.63268374 114.57625842 201.61527425 C108.41851163 201.58851703 102.2609583 201.5829805 96.10315967 201.5843752 C86.25699234 201.58659968 76.41106513 201.57250232 66.56499171 201.52878934 C63.12492438 201.51894442 59.68523288 201.52767351 56.24517322 201.53748494 C54.13199627 201.53133994 52.01882138 201.52442794 49.9056499 201.51662618 C48.95010715 201.52434545 47.99456439 201.53206472 47.01006579 201.5400179 C41.81370193 201.50044779 38.09593258 201.12226146 33.6334331 198.14772969 C30.71517902 193.81850648 30.27206025 190.37115164 30.34046435 185.21804219 C30.35496631 183.28444844 30.35496631 183.28444844 30.36976123 181.31179219 C30.39482122 179.96543183 30.42021598 178.61907766 30.4459331 177.27272969 C30.46099806 175.90295264 30.47468328 174.53315968 30.48694873 173.16335469 C30.52221931 169.82440611 30.57151414 166.48627295 30.6334331 163.14772969 C29.23435718 163.17129537 29.23435718 163.17129537 27.80701709 163.19533712 C24.31998047 163.24670951 20.8333507 163.28419738 17.34607959 163.31252462 C15.84178293 163.32753691 14.3375295 163.34795323 12.83338428 163.37404805 C10.66115615 163.41076785 8.48951059 163.42753131 6.31702685 163.44069844 C4.36107593 163.46426412 4.36107593 163.46426412 2.36561084 163.48830587 C-2.47394831 163.0466767 -6.57587889 161.99030074 -10.04237103 158.42337114 C-11.76449489 155.46388718 -11.74934821 153.42352217 -11.76097608 150.00577718 C-11.77232587 148.74538121 -11.78367566 147.48498525 -11.79536939 146.18639547 C-11.79272613 144.7920772 -11.78975491 143.39775953 -11.78648877 142.00344259 C-11.79382919 140.53314488 -11.80241534 139.06285295 -11.81215405 137.59256917 C-11.83438136 133.6008111 -11.83730017 129.60925938 -11.83540654 125.61744791 C-11.8352869 122.28487465 -11.84384835 118.9523452 -11.85218406 115.61978412 C-11.87142233 107.75773172 -11.87430034 99.89578551 -11.86754346 92.03371602 C-11.86090127 83.92311417 -11.88377294 75.81296694 -11.92085719 67.70245731 C-11.95154389 60.73842289 -11.96291538 53.77453479 -11.95902038 46.8104341 C-11.95695187 42.65131926 -11.96244741 38.49255819 -11.98691297 34.33350736 C-12.00916103 30.42219645 -12.00731927 26.51162526 -11.98698545 22.6003111 C-11.98357192 21.16561352 -11.98867943 19.73086634 -12.00296903 18.29623586 C-12.02114111 16.33645711 -12.00541648 14.3764517 -11.98802686 12.41666585 C-11.98873937 11.32031851 -11.98945188 10.22397117 -11.99018598 9.09440118 C-11.16655628 5.20265666 -9.33215287 3.698539 -6.3665669 1.14772969 C-4.61835178 -0.60048542 -2.33060099 0.01486182 0 0 Z M39.6334331 48.14772969 C39.53260673 49.97805178 39.50266387 51.81230039 39.49972034 53.6453951 C39.49545535 54.83868932 39.49119037 56.03198354 39.48679614 57.26143819 C39.4871457 58.59584984 39.48760726 59.93026147 39.48816943 61.26467305 C39.4851795 62.66057343 39.48177736 64.05647297 39.47799182 65.45237142 C39.46913066 69.25398254 39.46681282 73.05557118 39.46617603 76.85719162 C39.46522868 80.02584924 39.46155239 83.19450156 39.45800394 86.36315715 C39.44985133 93.8361912 39.44742044 101.3092132 39.44813037 108.78225118 C39.44873138 116.50245544 39.43817682 124.22258986 39.42238671 131.94277644 C39.40933052 138.56103546 39.40394566 145.1792716 39.40458578 151.79754341 C39.40484133 155.75472513 39.40195863 159.71184485 39.39140773 163.6690138 C39.38175896 167.38964929 39.38162524 171.11016308 39.38892436 174.83080274 C39.39047633 176.85337199 39.38210103 178.87594114 39.37348437 180.89849263 C39.37767886 182.09460668 39.38187335 183.29072072 39.38619494 184.52308065 C39.38565018 185.56709507 39.38510541 186.6111095 39.38454413 187.68676072 C39.38935899 190.32523431 39.38935899 190.32523431 41.6334331 192.14772969 C43.58791428 192.42408973 43.58791428 192.42408973 45.85532641 192.33872396 C46.74104831 192.33110036 47.6267702 192.32347677 48.53933215 192.31562215 C49.51381808 192.29735875 50.48830401 192.27909536 51.49231982 192.26027852 C53.61690111 192.23780999 55.74148413 192.21550433 57.8660686 192.19333822 C58.99731032 192.17805892 60.12855205 192.16277963 61.29407382 192.14703733 C67.28199572 192.07510089 73.27015414 192.06485526 79.2584331 192.04421407 C86.88062785 192.01464396 94.50129081 191.96697487 102.12269092 191.84963399 C108.27885787 191.75646711 114.43248567 191.72733576 120.5893085 191.74002057 C122.92967147 191.73323066 125.27009213 191.70329017 127.6098392 191.64917356 C146.87508951 191.22176195 146.87508951 191.22176195 152.61274219 195.91539937 C155.24516463 198.52748949 157.3871872 201.35866984 159.43434024 204.44253522 C161.49043455 207.36644608 163.98190506 209.88092297 166.4459331 212.46022969 C169.45895289 215.72610099 172.42045927 219.03134265 175.3209331 222.39772969 C178.27476723 225.80979584 181.43113673 228.96640361 184.6490581 232.12819844 C187.23943945 234.76447237 189.62358088 237.55098904 191.9928081 240.38601094 C193.7273308 242.24855794 195.58439527 243.64680684 197.6334331 245.14772969 C197.64374057 244.51101842 197.65404803 243.87430715 197.66466784 243.21830159 C197.77249641 236.61646172 197.88711271 230.01476491 198.00574756 223.41311055 C198.04917254 220.94634401 198.09084182 218.47954592 198.13074756 216.01271993 C198.18826756 212.47559503 198.25201385 208.93863004 198.31702685 205.40163594 C198.33373935 204.29123449 198.35045184 203.18083303 198.36767077 202.03678304 C198.387616 201.01580022 198.40756122 199.9948174 198.42811084 198.94289571 C198.44365512 198.0391068 198.4591994 197.13531789 198.47521472 196.20414144 C198.6334331 194.14772969 198.6334331 194.14772969 199.6334331 193.14772969 C202.21332195 193.00009004 204.76991403 192.9127707 207.3521831 192.86647969 C208.12525805 192.84807027 208.89833301 192.82966085 209.69483447 192.81069356 C213.01618162 192.73175354 216.33773993 192.66418807 219.65931201 192.5954836 C222.07787456 192.54386361 224.49625659 192.48657028 226.9146831 192.42897969 C227.67196704 192.41540426 228.42925097 192.40182882 229.20948291 192.387842 C232.7159066 192.61752283 232.7159066 192.61752283 235.6334331 191.14772969 C235.73209938 189.30242797 235.75975466 187.45330881 235.76041675 185.6053713 C235.76323657 184.40221776 235.76605639 183.19906423 235.76896167 181.9594515 C235.76701708 180.61400762 235.76496889 179.2685639 235.76282763 177.92312032 C235.76418165 176.51574579 235.76596158 175.10837162 235.76813769 173.70099813 C235.77271206 169.86845902 235.77092246 166.03594671 235.76775861 162.20340711 C235.76523502 158.2013267 235.76757254 154.19924866 235.76914477 150.19716817 C235.77096647 143.47511806 235.76856015 136.75307892 235.7638042 130.03103048 C235.75836158 122.24834245 235.76012423 114.46568062 235.7656306 106.68299323 C235.77016172 100.01294668 235.77081229 93.34290804 235.76819193 86.67286044 C235.76662915 82.68387308 235.76643542 78.69489804 235.76972842 74.70591146 C235.77260712 70.95657857 235.77063147 67.20727961 235.76483417 63.45795041 C235.76350656 62.07802113 235.76390069 60.69808901 235.76609683 59.31816083 C235.76880828 57.44213759 235.76481356 55.56610814 235.76041675 53.69008809 C235.76003972 52.63777753 235.75966269 51.58546697 235.75927424 50.50126821 C235.89861171 48.19012702 235.89861171 48.19012702 234.6334331 47.14772969 C232.13159476 47.04778311 229.65730057 47.0133156 227.15491748 47.02074605 C225.96638045 47.01840607 225.96638045 47.01840607 224.75383258 47.01601881 C222.07826426 47.01200559 219.40275192 47.01519969 216.7271831 47.01833516 C214.81735203 47.01698126 212.90752123 47.0152014 210.99769092 47.0130251 C205.79536309 47.00844941 200.593055 47.01024089 195.3907268 47.01340419 C189.95925855 47.01592709 184.52779204 47.01359045 179.09632373 47.01201802 C169.97327375 47.01019612 160.85023186 47.01260317 151.7271831 47.0173586 C141.16338715 47.02280126 130.59961049 47.02103862 120.035815 47.0155322 C110.98362317 47.01100165 101.93143716 47.01035023 92.87924457 47.01297086 C87.4650288 47.01453396 82.05082212 47.01472652 76.63660693 47.01143438 C71.5477712 47.00855651 66.45896046 47.0105298 61.37012744 47.01632863 C59.49675547 47.01765669 57.62338141 47.01726136 55.75001025 47.01506597 C53.20396084 47.01235622 50.65799287 47.01573341 48.11194873 47.02074605 C46.98507522 47.01739997 46.98507522 47.01739997 45.83543658 47.01398629 C42.44774849 46.72572408 42.44774849 46.72572408 39.6334331 48.14772969 Z " fill="#00030B" transform="translate(11.366566896438599,-0.14772969484329224)"/>
<path d="M0 0 C64.35 0 128.7 0 195 0 C196.38308781 2.76617563 196.11210196 5.01018 196.09765625 8.1015625 C196.09443359 9.31328125 196.09121094 10.525 196.08789062 11.7734375 C196.07951172 13.04445313 196.07113281 14.31546875 196.0625 15.625 C196.05573242 17.543125 196.05573242 17.543125 196.04882812 19.5 C196.03701203 22.66671292 196.02053815 25.83333356 196 29 C194.81778398 29.00219984 194.81778398 29.00219984 193.6116848 29.00444412 C174.43219879 29.04149977 155.2528951 29.10049797 136.07355309 29.18390274 C126.79854417 29.22370791 117.52362027 29.25609289 108.24853516 29.27099609 C100.16412804 29.28400496 92.07990789 29.31095001 83.99560606 29.35461307 C79.71519966 29.37724517 75.43502401 29.39290964 71.15455246 29.39188385 C67.12431026 29.39113826 63.09457851 29.40904785 59.06446838 29.44116783 C57.5866847 29.44967548 56.10884382 29.45141084 54.6310463 29.44580269 C52.60999525 29.43915547 50.5889096 29.45945637 48.56796265 29.48101807 C47.43784445 29.48470524 46.30772625 29.48839241 45.14336205 29.49219131 C41.26424258 30.11886127 39.06220477 31.58376595 36 34 C34.82612858 36.34774283 34.86284396 37.76082154 34.84178162 40.37857056 C34.8319928 41.29846268 34.82220398 42.2183548 34.81211853 43.16612244 C34.80636307 44.17816238 34.8006076 45.19020233 34.79467773 46.23291016 C34.78477814 47.2963414 34.77487854 48.35977264 34.76467896 49.45542908 C34.7329992 52.98328395 34.70828093 56.51115232 34.68359375 60.0390625 C34.66302982 62.48001462 34.6420335 64.92096314 34.62062073 67.36190796 C34.56534217 73.79643845 34.51595842 80.23100138 34.46777344 86.66558838 C34.4176006 93.22760923 34.36189255 99.78958279 34.30664062 106.3515625 C34.19898832 119.23433435 34.09737125 132.11714655 34 145 C29.4793335 145.02468857 24.9587061 145.04285449 20.43798828 145.05493164 C18.89956987 145.05996552 17.36115625 145.06679308 15.82275391 145.07543945 C13.61359474 145.08754639 11.40449874 145.09323769 9.1953125 145.09765625 C8.16085495 145.10539818 8.16085495 145.10539818 7.10549927 145.11329651 C2.22774341 145.11387171 2.22774341 145.11387171 0 144 C0 96.48 0 48.96 0 0 Z " fill="#015ED9" transform="translate(9,9)"/>
<path d="M0 0 C64.35 0 128.7 0 195 0 C199.32563419 8.65126837 196 19.32758791 196 29 C144.52 29.33 93.04 29.66 40 30 C40 29.34 40 28.68 40 28 C90.82 28 141.64 28 194 28 C194 19.09 194 10.18 194 1 C130.31 1 66.62 1 1 1 C1.33 2.98 1.66 4.96 2 7 C2.08418116 8.9474767 2.1220695 10.89735477 2.12025452 12.84664917 C2.12162918 13.99080795 2.12300385 15.13496674 2.12442017 16.313797 C2.12082489 17.55457504 2.11722961 18.79535309 2.11352539 20.07373047 C2.11367142 21.39133865 2.11381744 22.70894684 2.1139679 24.06648254 C2.11425409 27.66726582 2.10838617 31.26801559 2.10139394 34.8687911 C2.09513072 38.63641279 2.09455425 42.40403529 2.09336853 46.17166138 C2.09026396 53.30070316 2.08206237 60.42972956 2.07201904 67.55876458 C2.06083074 75.67724773 2.05534061 83.79573163 2.05032361 91.91422057 C2.03987901 108.6094908 2.02154441 125.30473984 2 142 C11.9 142.33 21.8 142.66 32 143 C31.98952637 139.82971191 31.97905273 136.65942383 31.96826172 133.39306641 C31.93518 122.93963262 31.91305357 112.48619658 31.89637566 102.03272438 C31.88592104 95.6923611 31.87173131 89.35205126 31.84912109 83.01171875 C31.82745245 76.89742886 31.81544403 70.78319051 31.81024551 64.6688652 C31.80653898 62.33157921 31.79930148 59.99429617 31.78853989 57.65703201 C31.77410444 54.39319933 31.77201872 51.12958192 31.77294922 47.86572266 C31.76575867 46.89108566 31.75856812 45.91644867 31.75115967 44.91227722 C31.753909 44.02604172 31.75665833 43.13980621 31.75949097 42.22671509 C31.75764738 41.45425257 31.75580379 40.68179005 31.75390434 39.88591957 C32 38 32 38 34 36 C34 71.97 34 107.94 34 145 C2 145 2 145 0 144 C0 96.48 0 48.96 0 0 Z " fill="#1258B9" transform="translate(9,9)"/>
<path d="M0 0 C0.33 0 0.66 0 1 0 C1 44.55 1 89.1 1 135 C10.9 135.33 20.8 135.66 31 136 C30.98952637 132.82971191 30.97905273 129.65942383 30.96826172 126.39306641 C30.93518 115.93963262 30.91305357 105.48619658 30.89637566 95.03272438 C30.88592104 88.6923611 30.87173131 82.35205126 30.84912109 76.01171875 C30.82745245 69.89742886 30.81544403 63.78319051 30.81024551 57.6688652 C30.80653898 55.33157921 30.79930148 52.99429617 30.78853989 50.65703201 C30.77410444 47.39319933 30.77201872 44.12958192 30.77294922 40.86572266 C30.76575867 39.89108566 30.75856812 38.91644867 30.75115967 37.91227722 C30.753909 37.02604172 30.75665833 36.13980621 30.75949097 35.22671509 C30.75764738 34.45425257 30.75580379 33.68179005 30.75390434 32.88591957 C31 31 31 31 33 29 C33 64.97 33 100.94 33 138 C22.44 138 11.88 138 1 138 C-0.3012763 135.39744739 -0.12293904 133.51180181 -0.12025452 130.59640503 C-0.12162918 129.44933075 -0.12300385 128.30225647 -0.12442017 127.12042236 C-0.12082489 125.85591248 -0.11722961 124.59140259 -0.11352539 123.28857422 C-0.11324343 121.9483948 -0.11340143 120.60821522 -0.1139679 119.26803589 C-0.11425551 115.62362899 -0.10836451 111.97925483 -0.10139394 108.33485556 C-0.09515451 104.52850605 -0.09455613 100.72215584 -0.09336853 96.915802 C-0.09025696 89.70517041 -0.0820459 82.49455392 -0.07201904 75.28392899 C-0.06085251 67.07606021 -0.05534609 58.86819071 -0.05032361 50.66031623 C-0.03986316 33.7735354 -0.02226707 16.8867693 0 0 Z " fill="#0B50AE" transform="translate(10,16)"/>
<path d="M0 0 C2.5 0.25 2.5 0.25 4.5 2.25 C4.75396729 4.0715332 4.75396729 4.0715332 4.75878906 6.30078125 C4.76509338 7.13504639 4.77139771 7.96931152 4.77789307 8.82885742 C4.7738446 9.73095947 4.76979614 10.63306152 4.765625 11.5625 C4.76753845 12.48716064 4.7694519 13.41182129 4.77142334 14.36450195 C4.77278566 16.32145459 4.76908596 18.27841624 4.76074219 20.23535156 C4.75004334 23.2378359 4.76063591 26.23972187 4.7734375 29.2421875 C4.77211591 31.14062633 4.76955354 33.03906478 4.765625 34.9375 C4.76967346 35.83960205 4.77372192 36.7417041 4.77789307 37.67114258 C4.77158875 38.50540771 4.76528442 39.33967285 4.75878906 40.19921875 C4.75640228 41.30269653 4.75640228 41.30269653 4.75396729 42.4284668 C4.5 44.25 4.5 44.25 2.5 46.25 C0 46.5 0 46.5 -2.5 46.25 C-4.87046531 43.87953469 -4.75183138 43.41595828 -4.75878906 40.19921875 C-4.76509338 39.36495361 -4.77139771 38.53068848 -4.77789307 37.67114258 C-4.7738446 36.76904053 -4.76979614 35.86693848 -4.765625 34.9375 C-4.76753845 34.01283936 -4.7694519 33.08817871 -4.77142334 32.13549805 C-4.77278566 30.17854541 -4.76908596 28.22158376 -4.76074219 26.26464844 C-4.75004334 23.2621641 -4.76063591 20.26027813 -4.7734375 17.2578125 C-4.77211591 15.35937367 -4.76955354 13.46093522 -4.765625 11.5625 C-4.76967346 10.66039795 -4.77372192 9.7582959 -4.77789307 8.82885742 C-4.77158875 7.99459229 -4.76528442 7.16032715 -4.75878906 6.30078125 C-4.75719788 5.56512939 -4.75560669 4.82947754 -4.75396729 4.0715332 C-4.31853277 0.94845996 -2.99667725 0.29966772 0 0 Z " fill="#E9F6FD" transform="translate(25.5,25.75)"/>
<path d="M0 0 C1.29852905 -0.00137466 2.59705811 -0.00274933 3.93493652 -0.00416565 C5.38223289 -0.00062626 6.82952903 0.00300856 8.27682495 0.00672913 C9.79434202 0.00701107 11.31185923 0.00685313 12.82937622 0.00628662 C16.95723719 0.00599892 21.08506929 0.01189126 25.21292353 0.01886058 C29.52376313 0.02509864 33.83460335 0.02569828 38.14544678 0.02688599 C46.31230864 0.02999796 54.47915716 0.03820956 62.64601314 0.04823548 C71.94213234 0.05940075 81.23825216 0.06490811 90.53437638 0.06993091 C109.6606103 0.08039227 128.78683179 0.09798914 147.91305542 0.12025452 C147.91305542 0.45025452 147.91305542 0.78025452 147.91305542 1.12025452 C144.12881451 1.99844081 140.61476688 2.25320535 136.73350525 2.27174377 C135.49000809 2.28008743 134.24651093 2.28843109 132.96533203 2.29702759 C131.59512355 2.30133652 130.22491479 2.30556036 128.85470581 2.30970764 C127.40559145 2.31765479 125.95647945 2.32604312 124.50737 2.33483887 C121.39118705 2.35286649 118.2750092 2.36789261 115.15880013 2.38061523 C110.22939345 2.4008746 105.30004511 2.42852207 100.37068176 2.45729065 C89.90566702 2.51732644 79.44061722 2.56919493 68.97555542 2.62025452 C57.6807161 2.67537587 46.3858945 2.73191031 35.09111208 2.7978034 C30.19297203 2.82610046 25.29483865 2.84971514 20.39665806 2.86972809 C17.34696843 2.8831451 14.29731097 2.90055578 11.24764824 2.91903877 C9.83595979 2.92677344 8.42426113 2.93285231 7.01255798 2.93713188 C5.08154919 2.943213 3.15056434 2.95583805 1.21958923 2.96876526 C-0.39947783 2.97649586 -0.39947783 2.97649586 -2.05125332 2.98438263 C-5.13449027 3.12238257 -8.05636515 3.5497686 -11.08694458 4.12025452 C-7.40400963 0.26991344 -5.32858453 -0.00433218 0 0 Z " fill="#001534" transform="translate(57.086944580078125,37.87974548339844)"/>
<path d="M0 0 C0.66 0 1.32 0 2 0 C2 16.83 2 33.66 2 51 C0.68 49.68 -0.64 48.36 -2 47 C-1.34 47 -0.68 47 0 47 C0 31.49 0 15.98 0 0 Z " fill="#176FC9" transform="translate(207,194)"/>
<path d="M0 0 C2.5 0.25 2.5 0.25 4.5 2.25 C4.765625 4.125 4.765625 4.125 4.75 6.25 C4.75515625 6.95125 4.7603125 7.6525 4.765625 8.375 C4.5 10.25 4.5 10.25 2.5 12.25 C0 12.5 0 12.5 -2.5 12.25 C-4.5 10.25 -4.5 10.25 -4.765625 8.375 C-4.76046875 7.67375 -4.7553125 6.9725 -4.75 6.25 C-4.75515625 5.54875 -4.7603125 4.8475 -4.765625 4.125 C-4.31971142 0.97737476 -3.03899237 0.30389924 0 0 Z " fill="#E3F5FD" transform="translate(25.5,85.75)"/>
<path d="M0 0 C0.99 0.33 1.98 0.66 3 1 C2.67 15.85 2.34 30.7 2 46 C1.67 46 1.34 46 1 46 C0.67 30.82 0.34 15.64 0 0 Z " fill="#1059BB" transform="translate(29,26)"/>
<path d="M0 0 C1.32 0.33 2.64 0.66 4 1 C4 1.66 4 2.32 4 3 C4.99 2.67 5.98 2.34 7 2 C7.66 4.31 8.32 6.62 9 9 C9.66 9 10.32 9 11 9 C10.67 10.32 10.34 11.64 10 13 C8.51511559 11.40112446 7.03726855 9.79571095 5.5625 8.1875 C4.32693359 6.84751953 4.32693359 6.84751953 3.06640625 5.48046875 C1 3 1 3 0 0 Z " fill="#0C66CB" transform="translate(175,208)"/>
</svg>
