<?xml version="1.0" encoding="UTF-8"?>
<svg version="1.1" xmlns="http://www.w3.org/2000/svg" width="256" height="256">
<path d="M0 0 C0.96574331 -0.00679667 0.96574331 -0.00679667 1.95099658 -0.01373065 C4.10035462 -0.02635324 6.24945857 -0.0247557 8.39884949 -0.02310181 C9.94324061 -0.02908844 11.48762873 -0.0358943 13.03201294 -0.04345703 C17.22221905 -0.06111142 21.41234346 -0.0658122 25.60258317 -0.0670886 C28.22236557 -0.06851118 30.84212727 -0.07278283 33.46190453 -0.07808304 C42.6069152 -0.0965821 51.7518676 -0.10475389 60.89689636 -0.10317993 C69.41239357 -0.10197886 77.92763718 -0.12307478 86.44307023 -0.15466726 C93.76129432 -0.18084749 101.07943567 -0.19154648 108.39770621 -0.19026911 C112.765328 -0.18975995 117.13272443 -0.19541748 121.50029945 -0.21662521 C125.61015651 -0.23603691 129.71957392 -0.23611227 133.82944679 -0.22159195 C135.33383834 -0.21950631 136.83825762 -0.22419021 138.34260178 -0.23631287 C147.49883263 -0.30529126 154.50132179 -0.07287525 161.69645691 6.23226929 C162.23528503 6.88324585 162.77411316 7.53422241 163.32926941 8.20492554 C163.88356628 8.85332397 164.43786316 9.50172241 165.00895691 10.16976929 C168.25700398 14.88382679 168.69627219 18.86408804 168.64958191 24.53695679 C168.64675201 25.21795944 168.64392212 25.8989621 168.64100647 26.6006012 C168.62987466 28.76056009 168.60478397 30.92009348 168.57926941 33.07992554 C168.56923052 34.55062264 168.56010626 36.0213263 168.55192566 37.49203491 C168.52995854 41.08396839 168.49547761 44.67565538 168.45426941 48.26742554 C169.80005066 48.23600464 169.80005066 48.23600464 171.17301941 48.20394897 C174.535268 48.13534938 177.89676176 48.08542259 181.25944519 48.04769897 C182.70845858 48.02771258 184.15739266 48.00051356 185.60612488 47.96566772 C195.01403468 47.74522049 202.22945731 47.6888881 209.69645691 54.23226929 C216.77772105 62.78738506 217.60489579 70.30525134 217.59953308 81.16903687 C217.60289169 82.15032059 217.60625031 83.13160431 217.60971069 84.1426239 C217.61918932 87.37824783 217.62116228 90.61381984 217.62223816 93.84945679 C217.62545297 96.10618613 217.62881721 98.36291526 217.63232422 100.61964417 C217.63830782 105.34802737 217.64016491 110.07639233 217.63957214 114.80477905 C217.63947059 120.85045799 217.65311984 126.89601933 217.67034435 132.94167042 C217.68148721 137.6026513 217.68349064 142.26360395 217.68296242 146.92459679 C217.6841392 149.1528228 217.68854396 151.38104962 217.69629478 153.60926247 C217.7061404 156.73213458 217.70319851 159.85475406 217.69718933 162.97763062 C217.70280884 163.88962219 217.70842834 164.80161377 217.71421814 165.74124146 C217.66915107 175.00228061 216.66060708 183.09827599 209.81364441 189.89633179 C204.48695702 194.70193019 200.69488688 196.36674814 193.45426941 196.26742554 C193.47783508 197.17452271 193.47783508 197.17452271 193.50187683 198.09994507 C193.56458821 200.86400849 193.60337352 203.62792174 193.64176941 206.39242554 C193.66690613 207.34375366 193.69204285 208.29508179 193.71794128 209.27523804 C193.77435002 214.69047696 193.5978947 218.6242986 190.45426941 223.26742554 C187.2143923 224.88736409 183.96056795 224.78305768 180.45426941 224.26742554 C177.76240839 223.07662896 175.54056954 221.41879352 173.20426941 219.64242554 C171.81760511 218.64104805 170.43088344 217.63975 169.04411316 216.63851929 C168.31047546 216.09824097 167.57683777 215.55796265 166.82096863 215.00131226 C162.51113284 211.84384849 158.13599115 208.77935597 153.76676941 205.70492554 C152.91759949 205.09761597 152.06842957 204.4903064 151.19352722 203.86459351 C150.38882996 203.29498901 149.58413269 202.72538452 148.75505066 202.13851929 C148.04518005 201.63248169 147.33530945 201.12644409 146.60392761 200.60507202 C141.9099226 197.68418009 138.1024853 197.01779978 132.58781433 197.01205444 C131.9171846 197.00843399 131.24655487 197.00481354 130.55560303 197.00108337 C129.10589134 196.99421472 127.65615394 196.99167918 126.20642662 196.99303055 C123.90591509 196.99400019 121.60586521 196.98100155 119.30541992 196.96405029 C112.76710077 196.91791594 106.22882983 196.89318749 99.69035339 196.88656616 C95.6837984 196.88153167 91.67772624 196.85718459 87.67133522 196.82123947 C86.15125245 196.81148634 84.63110288 196.80908489 83.11099815 196.81441116 C73.78229198 196.84556119 66.54384281 196.7274524 59.21208191 190.30258179 C58.67325378 189.65160522 58.13442566 189.00062866 57.57926941 188.32992554 C57.02497253 187.6815271 56.47067566 187.03312866 55.89958191 186.36508179 C52.27816394 181.10913192 52.06404081 176.15191243 51.82926941 169.95492554 C51.79059753 169.11896851 51.75192566 168.28301147 51.71208191 167.42172241 C51.61831782 165.37063295 51.53522696 163.31906039 51.45426941 161.26742554 C50.79942566 161.72182007 50.14458191 162.1762146 49.46989441 162.64437866 C46.47752754 164.70480076 43.46646538 166.73611477 40.45426941 168.76742554 C39.42430847 169.48285522 38.39434753 170.19828491 37.33317566 170.93539429 C28.65060339 176.74221014 28.65060339 176.74221014 23.95426941 176.98617554 C19.94334557 176.16250368 18.90437895 175.47284197 16.45426941 172.26742554 C16.00016785 169.24301147 16.00016785 169.24301147 16.06364441 165.75180054 C16.07653503 164.50140991 16.08942566 163.25101929 16.10270691 161.96273804 C16.13622253 160.66078491 16.16973816 159.35883179 16.20426941 158.01742554 C16.22231628 156.70000366 16.24036316 155.38258179 16.25895691 154.02523804 C16.3061067 150.77190246 16.37190897 147.52002929 16.45426941 144.26742554 C15.79942566 144.2883728 15.14458191 144.30932007 14.46989441 144.3309021 C11.46484612 144.41472936 8.46004477 144.46629449 5.45426941 144.51742554 C4.42430847 144.55094116 3.39434753 144.58445679 2.33317566 144.61898804 C-5.50710311 144.7188642 -10.83765787 143.51683421 -16.78791809 138.30258179 C-17.59616028 137.32611694 -17.59616028 137.32611694 -18.42073059 136.32992554 C-18.97502747 135.6815271 -19.52932434 135.03312866 -20.10041809 134.36508179 C-24.00820051 128.69351649 -23.84231514 123.39888363 -23.83625793 116.72909546 C-23.84297516 115.66832291 -23.84969238 114.60755035 -23.85661316 113.51463318 C-23.87560579 110.00900585 -23.87951809 106.50356986 -23.88166809 102.99789429 C-23.88809536 100.55797751 -23.89482367 98.11806151 -23.90184021 95.67814636 C-23.91381631 90.56294976 -23.91752071 85.44782072 -23.91633606 80.33261108 C-23.91613291 73.78558597 -23.94343014 67.23899511 -23.97788048 60.69207287 C-24.00014417 55.65195231 -24.00417374 50.61193632 -24.00311661 45.57177162 C-24.00547354 43.15849626 -24.01430222 40.74521806 -24.02978134 38.3319912 C-24.04942869 34.9523334 -24.04360723 31.57361286 -24.03157043 28.19393921 C-24.04280945 27.2019754 -24.05404846 26.2100116 -24.06562805 25.18798828 C-23.9998657 17.90285348 -22.42692732 12.55531207 -17.58088684 7.02523804 C-16.92991028 6.48640991 -16.27893372 5.94758179 -15.60823059 5.39242554 C-14.95983215 4.83812866 -14.31143372 4.28383179 -13.64338684 3.71273804 C-9.18858757 0.64332327 -5.36031972 0.01562072 0 0 Z " fill="#CED3ED" transform="translate(31.545730590820313,15.732574462890625)"/>
<path d="M0 0 C4.26832981 -0.09965569 8.53602469 -0.17183391 12.80517578 -0.21972656 C14.25418917 -0.23971295 15.70312325 -0.26691197 17.15185547 -0.30175781 C26.51720784 -0.52120783 33.80224217 -0.5548296 41.2421875 5.96484375 C48.32345164 14.51995952 49.15062639 22.0378258 49.14526367 32.90161133 C49.14862228 33.88289505 49.1519809 34.86417877 49.15544128 35.87519836 C49.16491991 39.1108223 49.16689287 42.34639431 49.16796875 45.58203125 C49.17118356 47.83876059 49.1745478 50.09548972 49.17805481 52.35221863 C49.18403841 57.08060184 49.18589551 61.80896679 49.18530273 66.53735352 C49.18520118 72.58303246 49.19885043 78.62859379 49.21607494 84.67424488 C49.2272178 89.33522576 49.22922123 93.99617842 49.22869301 98.65717125 C49.22986979 100.88539726 49.23427455 103.11362408 49.24202538 105.34183693 C49.25187099 108.46470904 49.2489291 111.58732852 49.24291992 114.71020508 C49.24853943 115.62219666 49.25415894 116.53418823 49.25994873 117.47381592 C49.21488166 126.73485508 48.20633767 134.83085045 41.359375 141.62890625 C36.03268761 146.43450465 32.24061747 148.0993226 25 148 C25.02356567 148.90709717 25.02356567 148.90709717 25.04760742 149.83251953 C25.1103188 152.59658296 25.14910411 155.36049621 25.1875 158.125 C25.21263672 159.07632813 25.23777344 160.02765625 25.26367188 161.0078125 C25.32008061 166.42305142 25.14362529 170.35687306 22 175 C18.76012289 176.61993856 15.50629854 176.51563214 12 176 C9.30813898 174.80920342 7.08630013 173.15136798 4.75 171.375 C3.3633357 170.37362251 1.97661403 169.37232447 0.58984375 168.37109375 C-0.51061279 167.56067627 -0.51061279 167.56067627 -1.63330078 166.73388672 C-5.94313657 163.57642295 -10.31827826 160.51193043 -14.6875 157.4375 C-15.53666992 156.83019043 -16.38583984 156.22288086 -17.26074219 155.59716797 C-18.46778809 154.74276123 -18.46778809 154.74276123 -19.69921875 153.87109375 C-20.40908936 153.36505615 -21.11895996 152.85901855 -21.8503418 152.33764648 C-26.54434681 149.41675455 -30.35178411 148.75037424 -35.86645508 148.74462891 C-36.53708481 148.74100845 -37.20771454 148.737388 -37.89866638 148.73365784 C-39.34837806 148.72678918 -40.79811546 148.72425364 -42.24784279 148.72560501 C-44.54835432 148.72657465 -46.8484042 148.71357601 -49.14884949 148.69662476 C-55.68716864 148.6504904 -62.22543958 148.62576195 -68.76391602 148.61914062 C-72.77047101 148.61410613 -76.77654317 148.58975905 -80.78293419 148.55381393 C-82.30301696 148.5440608 -83.82316653 148.54165935 -85.34327126 148.54698563 C-94.67197743 148.57813565 -101.9104266 148.46002686 -109.2421875 142.03515625 C-110.05042969 141.05869141 -110.05042969 141.05869141 -110.875 140.0625 C-111.42929688 139.41410156 -111.98359375 138.76570312 -112.5546875 138.09765625 C-117.65493319 130.69540778 -117.33660501 120.95993396 -116.51367188 112.28564453 C-116 110 -116 110 -113.859375 107.27734375 C-110.97843962 105.51096019 -108.13474676 104.25309286 -105 103 C-103.2855436 101.91652389 -101.59493449 100.79384224 -99.9375 99.625 C-95.25448386 96.45782452 -92.80688552 95.87360422 -87.03100586 95.8581543 C-86.31365265 95.85467987 -85.59629944 95.85120544 -84.85720825 95.84762573 C-83.29612442 95.84026483 -81.7350301 95.83492123 -80.17393303 95.83133507 C-77.6970512 95.82416726 -75.22036721 95.80849558 -72.74354553 95.78999329 C-65.69990866 95.73755903 -58.65637638 95.68961155 -51.61254883 95.67407227 C-47.30469284 95.66394558 -42.99732938 95.63449675 -38.68966866 95.59275246 C-37.05319521 95.58049708 -35.416652 95.57531115 -33.7801342 95.57755089 C-24.05156112 95.58758282 -15.50896378 95.54328566 -7.66015625 89.0703125 C-7.13292969 88.42835938 -6.60570312 87.78640625 -6.0625 87.125 C-5.51722656 86.48820312 -4.97195312 85.85140625 -4.41015625 85.1953125 C-1.18111619 80.16838587 -0.69921736 75.09129949 -0.68115234 69.25048828 C-0.67110672 68.49858719 -0.6610611 67.7466861 -0.65071106 66.97200012 C-0.62000045 64.50477817 -0.60287798 62.03766413 -0.5859375 59.5703125 C-0.56721607 57.85251953 -0.54764193 56.13473565 -0.5272522 54.41696167 C-0.47602793 49.90927508 -0.4363504 45.4015587 -0.39910889 40.89373779 C-0.35900825 36.28845918 -0.3079436 31.68330342 -0.2578125 27.078125 C-0.1611682 18.05216976 -0.07672677 9.02614499 0 0 Z " fill="#4357FD" transform="translate(200,64)"/>
<path d="M0 0 C1.80859375 0.6328125 1.80859375 0.6328125 3.87109375 2.1953125 C5.27134563 5.83596738 4.95545804 8.93299689 3.80859375 12.6328125 C1.55786169 15.30034679 0.26413836 15.57586942 -3.19140625 16.0078125 C-6.64695086 15.57586942 -7.94067419 15.30034679 -10.19140625 12.6328125 C-11.16195756 9.89869843 -11.50554648 7.52178072 -11.19140625 4.6328125 C-8.11917185 -0.22329993 -5.38026882 -1.11877045 0 0 Z " fill="#4358FA" transform="translate(107.19140625,80.3671875)"/>
<path d="M0 0 C1.80859375 0.6328125 1.80859375 0.6328125 3.87109375 2.1953125 C5.27134563 5.83596738 4.95545804 8.93299689 3.80859375 12.6328125 C1.55786169 15.30034679 0.26413836 15.57586942 -3.19140625 16.0078125 C-6.64695086 15.57586942 -7.94067419 15.30034679 -10.19140625 12.6328125 C-11.16195756 9.89869843 -11.50554648 7.52178072 -11.19140625 4.6328125 C-8.11917185 -0.22329993 -5.38026882 -1.11877045 0 0 Z " fill="#4459F8" transform="translate(147.19140625,80.3671875)"/>
<path d="M0 0 C1.80859375 0.6328125 1.80859375 0.6328125 3.87109375 2.1953125 C5.27134563 5.83596738 4.95545804 8.93299689 3.80859375 12.6328125 C1.55786169 15.30034679 0.26413836 15.57586942 -3.19140625 16.0078125 C-6.64695086 15.57586942 -7.94067419 15.30034679 -10.19140625 12.6328125 C-11.16195756 9.89869843 -11.50554648 7.52178072 -11.19140625 4.6328125 C-8.11917185 -0.22329993 -5.38026882 -1.11877045 0 0 Z " fill="#4459F8" transform="translate(67.19140625,80.3671875)"/>
<path d="M0 0 C0.99 0.495 0.99 0.495 2 1 C-1.70526046 3.47017364 -3.58186979 3.25650603 -8.0065918 3.27124023 C-9.07061974 3.27908035 -9.07061974 3.27908035 -10.15614319 3.28707886 C-11.69646175 3.29731799 -13.2368149 3.30309912 -14.77716637 3.30496025 C-17.22032638 3.30862542 -19.66308098 3.32535835 -22.1061554 3.34571838 C-29.05238273 3.40109913 -35.99867106 3.43173098 -42.94506836 3.45629883 C-47.19563284 3.47223765 -51.4459127 3.50252864 -55.69632912 3.54106331 C-57.31130751 3.55266444 -58.92633698 3.55864323 -60.54135704 3.55874443 C-72.13897152 3.38547084 -72.13897152 3.38547084 -83 7 C-83.33 7.66 -83.66 8.32 -84 9 C-86.5625 9.625 -86.5625 9.625 -89 10 C-84.66159289 5.27879227 -80.95678992 2.32662089 -74.45137024 1.60800171 C-73.14137558 1.59991486 -71.83138092 1.591828 -70.48168945 1.58349609 C-69.75411438 1.57491074 -69.02653931 1.56632538 -68.2769165 1.55747986 C-65.88893798 1.53252883 -63.50137792 1.52805119 -61.11328125 1.5234375 C-59.44751223 1.50911857 -57.78175502 1.49335995 -56.11601257 1.47622681 C-51.74260803 1.43446013 -47.36927673 1.40940526 -42.99572754 1.38873291 C-35.9852458 1.35285287 -28.97494464 1.29193091 -21.96465111 1.23024368 C-19.51674314 1.21115939 -17.06888356 1.19942702 -14.6209259 1.18881226 C-13.12399185 1.1786019 -11.6270588 1.16824412 -10.13012695 1.15771484 C-8.82251907 1.15121918 -7.51491119 1.14472351 -6.16767883 1.13803101 C-2.97478266 1.14416559 -2.97478266 1.14416559 0 0 Z " fill="#4D5EE2" transform="translate(184,158)"/>
<path d="M0 0 C0.66 0.33 1.32 0.66 2 1 C1.67 4.3 1.34 7.6 1 11 C2.32 11 3.64 11 5 11 C5 11.66 5 12.32 5 13 C6.98 12.67 8.96 12.34 11 12 C9 14 9 14 6.125 14.3125 C2.57118512 13.95711851 1.30288217 13.72934183 -1 11 C-1.76177636 8.33100254 -2.16781721 5.77457793 -2 3 C-1.34 2.01 -0.68 1.02 0 0 Z " fill="#4E5EE9" transform="translate(98,82)"/>
<path d="M0 0 C7.31299354 0.47954056 7.31299354 0.47954056 10.0625 2.5625 C11.51970792 6.35124059 10.84315901 9.04363849 10 13 C9.01 13.495 9.01 13.495 8 14 C6.875 6.375 6.875 6.375 8 3 C6.68 3 5.36 3 4 3 C4 2.34 4 1.68 4 1 C2.35 1.33 0.7 1.66 -1 2 C-0.67 1.34 -0.34 0.68 0 0 Z " fill="#5063E8" transform="translate(101,80)"/>
<path d="M0 0 C-2.35277269 2.72426311 -4.62496331 3.8141763 -8 5 C-7.690625 5.9075 -7.38125 6.815 -7.0625 7.75 C-6.2727737 10.16563338 -5.57050703 12.52780285 -5 15 C-6.9375 14.5 -6.9375 14.5 -9 13 C-9.8706005 9.87608056 -10.35092936 8.11078064 -10 5 C-7.11449591 0.92634717 -5.03917126 -0.71988161 0 0 Z " fill="#5464ED" transform="translate(146,80)"/>
<path d="M0 0 C-2.35277269 2.72426311 -4.62496331 3.8141763 -8 5 C-7.690625 5.9075 -7.38125 6.815 -7.0625 7.75 C-6.2727737 10.16563338 -5.57050703 12.52780285 -5 15 C-6.9375 14.5 -6.9375 14.5 -9 13 C-9.8706005 9.87608056 -10.35092936 8.11078064 -10 5 C-7.11449591 0.92634717 -5.03917126 -0.71988161 0 0 Z " fill="#5464ED" transform="translate(66,80)"/>
<path d="M0 0 C1.32 0.66 2.64 1.32 4 2 C4.60736196 10.8404908 4.60736196 10.8404908 2.625 14.625 C-1.45572903 16.76252473 -5.48640154 16.31009455 -10 16 C-10.66 14.68 -11.32 13.36 -12 12 C-11.195625 12.495 -11.195625 12.495 -10.375 13 C-7.3957242 14.25443192 -5.20683803 14.27292239 -2 14 C1.42573253 12.22210149 1.42573253 12.22210149 1.8125 8.125 C2.1221501 4.84985471 1.96077495 2.76815287 0 0 Z " fill="#C4CBFE" transform="translate(149,81)"/>
<path d="M0 0 C1.32 0.66 2.64 1.32 4 2 C4.60736196 10.8404908 4.60736196 10.8404908 2.625 14.625 C-1.45572903 16.76252473 -5.48640154 16.31009455 -10 16 C-10.66 14.68 -11.32 13.36 -12 12 C-11.195625 12.495 -11.195625 12.495 -10.375 13 C-7.3957242 14.25443192 -5.20683803 14.27292239 -2 14 C1.42573253 12.22210149 1.42573253 12.22210149 1.8125 8.125 C2.1221501 4.84985471 1.96077495 2.76815287 0 0 Z " fill="#C4CBFE" transform="translate(69,81)"/>
<path d="M0 0 C0.33 0.66 0.66 1.32 1 2 C-1.25740623 4.33524782 -3.2805761 6.18705073 -6 8 C-6.66 7.67 -7.32 7.34 -8 7 C-8 13.6 -8 20.2 -8 27 C-8.33 27 -8.66 27 -9 27 C-10.47956693 8.0160181 -10.47956693 8.0160181 -6.99609375 3.26953125 C-4.68290009 1.80342259 -2.62476216 0.76555563 0 0 Z " fill="#4E5DD6" transform="translate(93,168)"/>
<path d="M0 0 C2.0625 1.5 2.0625 1.5 4 4 C4.22339706 6.97470827 3.71986393 9.02456242 3 12 C2.01 12.66 1.02 13.32 0 14 C-0.33 13.34 -0.66 12.68 -1 12 C-0.34 12 0.32 12 1 12 C0.814375 11.236875 0.62875 10.47375 0.4375 9.6875 C0 7 0 7 1 4 C0.61067144 1.85744207 0.61067144 1.85744207 0 0 Z " fill="#5566EC" transform="translate(148,81)"/>
<path d="M0 0 C2.0625 1.5 2.0625 1.5 4 4 C4.22339706 6.97470827 3.71986393 9.02456242 3 12 C2.01 12.66 1.02 13.32 0 14 C-0.33 13.34 -0.66 12.68 -1 12 C-0.34 12 0.32 12 1 12 C0.814375 11.236875 0.62875 10.47375 0.4375 9.6875 C0 7 0 7 1 4 C0.61067144 1.85744207 0.61067144 1.85744207 0 0 Z " fill="#5566EC" transform="translate(68,81)"/>
<path d="M0 0 C-1.45449401 1.0055761 -2.91372443 2.00430435 -4.375 3 C-5.59316406 3.8353125 -5.59316406 3.8353125 -6.8359375 4.6875 C-9 6 -9 6 -11 6 C-9.89210592 2.67631776 -9.51563783 2.38436907 -6.625 0.75 C-6.01914063 0.39421875 -5.41328125 0.0384375 -4.7890625 -0.328125 C-3 -1 -3 -1 0 0 Z " fill="#BAC6FC" transform="translate(95,168)"/>
<path d="M0 0 C0.33 0.66 0.66 1.32 1 2 C-1.25740623 4.33524782 -3.2805761 6.18705073 -6 8 C-6.33 7.01 -6.66 6.02 -7 5 C-4.69 3.35 -2.38 1.7 0 0 Z " fill="#4D5EED" transform="translate(93,168)"/>
<path d="M0 0 C1.21816406 0.03480469 1.21816406 0.03480469 2.4609375 0.0703125 C3.68683594 0.09738281 3.68683594 0.09738281 4.9375 0.125 C5.87722656 0.15980469 5.87722656 0.15980469 6.8359375 0.1953125 C6.8359375 0.8553125 6.8359375 1.5153125 6.8359375 2.1953125 C5.258125 2.0715625 5.258125 2.0715625 3.6484375 1.9453125 C-0.70169919 2.23056737 -2.0955778 3.21981219 -5.1640625 6.1953125 C-4.4726412 2.73820598 -3.94163347 0.35574309 0 0 Z " fill="#BEC5FD" transform="translate(141.1640625,78.8046875)"/>
<path d="M0 0 C1.21816406 0.03480469 1.21816406 0.03480469 2.4609375 0.0703125 C3.68683594 0.09738281 3.68683594 0.09738281 4.9375 0.125 C5.87722656 0.15980469 5.87722656 0.15980469 6.8359375 0.1953125 C6.8359375 0.8553125 6.8359375 1.5153125 6.8359375 2.1953125 C5.258125 2.0715625 5.258125 2.0715625 3.6484375 1.9453125 C-0.70169919 2.23056737 -2.0955778 3.21981219 -5.1640625 6.1953125 C-4.4726412 2.73820598 -3.94163347 0.35574309 0 0 Z " fill="#BEC5FD" transform="translate(61.1640625,78.8046875)"/>
<path d="M0 0 C2.97 0.495 2.97 0.495 6 1 C6 1.66 6 2.32 6 3 C7.98 2.67 9.96 2.34 12 2 C10 4 10 4 7.125 4.375 C3.37431801 3.92491816 2.33511483 2.87398748 0 0 Z " fill="#5A6AE6" transform="translate(97,92)"/>
</svg>
